<svg width="1024" height="1024" viewBox="0 0 1024 1024" fill="none" xmlns="http://www.w3.org/2000/svg">
<path d="M232.693 66.582C253.062 62.5091 269.357 61.1515 281.579 62.5091C293.801 62.5091 312.812 67.2608 338.613 76.7641C352.193 80.837 363.736 85.5887 373.241 91.0191C382.747 96.4496 392.253 103.238 401.758 111.383C411.264 119.529 422.807 131.069 436.386 146.003C470.335 181.301 495.457 210.49 511.753 233.569C525.333 253.933 537.554 264.794 548.418 266.152C560.639 266.152 569.466 256.649 574.898 237.642C588.478 199.629 614.279 162.294 652.302 125.638C690.325 88.9827 737.174 69.976 792.85 68.6184C848.527 65.9032 885.192 82.1946 902.845 117.493C910.993 133.784 918.462 146.003 925.251 154.148C933.399 166.367 944.942 203.023 959.879 264.116C963.953 288.553 961.237 315.026 951.731 343.536C944.942 365.258 933.399 404.629 917.104 461.649C881.797 583.835 845.811 666.65 809.146 710.094C796.924 726.385 779.95 748.107 758.222 775.259C743.285 795.624 726.31 811.915 707.299 824.134C684.214 837.71 640.759 873.687 576.935 932.064C544.344 960.574 514.469 968.72 487.31 956.502C473.73 951.071 466.94 945.641 466.94 940.21C466.94 936.137 442.497 908.306 393.611 856.717C344.724 805.127 313.491 768.471 299.911 746.749C284.974 722.312 260.531 690.408 226.582 651.037C210.286 630.673 197.386 615.06 187.88 604.199C179.732 593.338 171.584 581.799 163.437 569.58C155.289 557.362 147.82 545.822 141.03 534.961C135.599 524.1 128.13 508.487 118.624 488.123C88.749 432.46 70.4165 374.083 63.6267 312.99C60.9108 280.407 67.0216 246.467 81.9592 211.169C96.8967 175.87 117.945 145.324 145.104 119.529C173.621 92.3767 202.817 74.7277 232.693 66.582Z" fill="#FF4F6E"/>
</svg>
